# xmcd
#
# Track frame offsets: 
#        150
#        19224
#        37023
#        59058
#        78574
#        95534
#        121396
#        140843
#        167964
#        189653
#        211231
#        238871
#        262876
#
# Disc length: 4087 seconds
#
# Revision: 0
# Processed by: cddbd v1.5.2PL0 Copyright (c) Steve Scherf et al.
# Submitted via: ExactAudioCopyFreeDBPlugin 1.0
#
DISCID=c40ff50d
DTITLE=Popa Chubby - Two Dogs
DYEAR=2017
DGENRE=Blues
TTITLE0=It's Alright
TTITLE1=Rescue Me
TTITLE2=Preexisting Conditions
TTITLE3=Sam Lay's Pistol
TTITLE4=Two Dogs
TTITLE5=Dirty Old Blues
TTITLE6=Shakedown
TTITLE7=Wound Up Getting High
TTITLE8=Cayophus Dupree
TTITLE9=Me Won't Back Down
TTITLE10=Chubby's Boogie
TTITLE11=Sympathy For The Devil
TTITLE12=Hallelujah
EXTD=
EXTT0=
EXTT1=
EXTT2=
EXTT3=
EXTT4=
EXTT5=
EXTT6=
EXTT7=
EXTT8=
EXTT9=
EXTT10=
EXTT11=
EXTT12=
PLAYORDER=
